<svg xmlns="http://www.w3.org/2000/svg" width="22" height="23" viewBox="0 0 22 23" fill="none">
  <g clip-path="url(#clip0_17_15)">
    <path d="M11.4414 14.7099C11.1726 14.9781 11.1726 15.4132 11.4414 15.6821C11.5755 15.8161 11.7515 15.8835 11.9275 15.8835C12.1035 15.8835 12.2795 15.8161 12.4135 15.6821L16.4746 11.5138L12.4135 7.34544C12.1454 7.07731 11.7102 7.07731 11.4414 7.34544C11.1726 7.61356 11.1726 8.04944 11.4414 8.31756L13.9281 10.8042H0.684082C0.304582 10.8042 -0.00341797 11.1123 -0.00341797 11.4917C-0.00341797 11.8713 0.304582 12.1793 0.684082 12.1793H13.9707L11.4414 14.7099ZM20.6285 0.5H8.25346C7.49377 0.5 6.87777 1.11531 6.87777 1.875V8.0625H8.26239V2.71375C8.26239 2.2545 8.63502 1.88188 9.09427 1.88188H19.7656C20.2256 1.88188 20.5975 2.2545 20.5975 2.71375L20.6195 20.2945C20.6195 20.7537 20.2476 21.1264 19.7876 21.1264H9.09496C8.63571 21.1264 8.26308 20.7537 8.26308 20.2945V14.9155L6.87846 14.9176V21.1257C6.87846 21.8854 7.49446 22.5007 8.25414 22.5007H20.6291C21.3888 22.5007 22.0041 21.8854 22.0041 21.1257V1.87569C22.0035 1.116 21.3881 0.500688 20.6291 0.500688L20.6285 0.5Z" fill="#F4DAA7"/>
  </g>
  <defs>
    <clipPath id="clip0_17_15">
      <rect width="22" height="22" fill="white" transform="translate(0 0.5)"/>
    </clipPath>
  </defs>
</svg>