<svg xmlns="http://www.w3.org/2000/svg" width="22" height="23" viewBox="0 0 22 23" fill="none">
<path fill-rule="evenodd" clip-rule="evenodd" d="M11 0.5C10.3605 0.5 9.84211 1.01841 9.84211 1.65789V10.3421H1.15789C0.518407 10.3421 0 10.8605 0 11.5C0 12.1395 0.518407 12.6579 1.15789 12.6579H9.84211V21.3421C9.84211 21.9816 10.3605 22.5 11 22.5C11.6395 22.5 12.1579 21.9816 12.1579 21.3421V12.6579H20.8421C21.4816 12.6579 22 12.1395 22 11.5C22 10.8605 21.4816 10.3421 20.8421 10.3421H12.1579V1.65789C12.1579 1.01841 11.6395 0.5 11 0.5Z" fill="#F4DAA7"/>
</svg>